<?xml version="1.0" encoding="UTF-8"?>
<svg id="Layer_2" data-name="Layer 2" xmlns="http://www.w3.org/2000/svg" viewBox="0 0 186.56 163.27">
  <defs>
    <style>
      .cls-1 {
        fill: #1a75e0;
      }
    </style>
  </defs>
  <g id="Layer_9" data-name="Layer 9">
    <polygon class="cls-1" points="186.56 163.27 0 163.27 0 0 18 0 18 145.27 186.56 145.27 186.56 163.27"/>
    <path class="cls-1" d="M31.68,102.5c-.73,0-1.46-.2-2.12-.61-1.87-1.18-2.44-3.64-1.26-5.52L76.42,19.75c.65-1.04,1.74-1.72,2.96-1.85,1.21-.13,2.43.3,3.29,1.18l43.03,43.95L166.81,6.67c1.3-1.79,3.81-2.17,5.59-.87,1.79,1.3,2.18,3.8.87,5.59l-43.9,60.18c-.69.95-1.77,1.55-2.94,1.63-1.18.09-2.32-.35-3.15-1.19l-42.78-43.7-45.43,72.33c-.76,1.21-2.06,1.87-3.39,1.87Z"/>
    <path class="cls-1" d="M32.07,127.07c-1.2,0-2.39-.54-3.18-1.57-1.34-1.75-1.01-4.26.75-5.61l53.59-40.99c1.18-.9,2.76-1.08,4.1-.46l83.37,38.44c2.01.93,2.88,3.3,1.96,5.31s-3.3,2.88-5.31,1.96l-81.18-37.43-51.67,39.52c-.73.55-1.58.82-2.43.82Z"/>
  </g>
</svg>