<?xml version="1.0" encoding="UTF-8"?>
<svg id="Layer_2" data-name="Layer 2" xmlns="http://www.w3.org/2000/svg" viewBox="0 0 692.71 443.64">
  <defs>
    <style>
      .cls-1 {
        fill: #48f7f5;
      }
    </style>
  </defs>
  <g id="Layer_2-2" data-name="Layer 2">
    <g id="uuid-aa3a1216-dcac-4c1f-ab18-91b8eea0c7ed" data-name="Layer 2-2">
      <g id="PheNode">
        <path class="cls-1" d="M181.04,391.09v20.78s-.57,27.01,15.46,31.75h-60.5c-23.58,0-44.31-15.8-52.82-40.25L3.86,175.25c-7.06-20.31-4.33-42.89,7.32-60.39,10.77-16.18,27.35-25.46,45.49-25.46h139.83c-17.12,5.43-15.46,32.35-15.46,32.35v20.11l-91.77.07s-45.08-3.77-29.29,41.65l70.17,201.77c1.18,3.38,3.58,5.75,5.85,5.75h97.73"/>
        <path class="cls-1" d="M458.98,391.09h97.73c2.27,0,4.67-2.36,5.85-5.75l70.17-201.77c15.79-45.42-29.29-41.65-29.29-41.65l-91.77-.07v-20.11s1.66-26.92-15.46-32.35h139.83c18.14,0,34.72,9.28,45.49,25.46,11.65,17.5,14.38,40.08,7.32,60.39l-79.32,228.13c-8.51,24.45-29.24,40.25-52.82,40.25h-60.5c16.03-4.74,15.46-31.75,15.46-31.75v-20.78"/>
        <rect class="cls-1" x="196.66" y="90.01" width="301.28" height="353.63" rx="30.98" ry="30.98"/>
        <rect class="cls-1" x="156.37" width="22.57" height="82.2" rx="9.33" ry="9.33"/>
        <rect class="cls-1" x="115.37" y="0" width="22.57" height="82.2" rx="9.33" ry="9.33"/>
        <rect class="cls-1" x="74.37" y="0" width="22.57" height="82.2" rx="9.33" ry="9.33"/>
        <path class="cls-1" d="M343.67,40.38c0-24.37,14.22-39.32,31.77-39.32h60.18c17.55,0,31.77,14.94,31.77,39.32h-123.72,0Z"/>
        <path class="cls-1" d="M343.67,121.75c0-42.27,14.22-57.21,31.77-57.21h60.18c17.55,0,31.77,14.94,31.77,57.21h-123.72,0Z"/>
      </g>
    </g>
  </g>
</svg>