<?xml version="1.0" encoding="utf-8"?>
<!-- Generator: Adobe Illustrator 16.0.4, SVG Export Plug-In . SVG Version: 6.00 Build 0)  -->
<!DOCTYPE svg PUBLIC "-//W3C//DTD SVG 1.1//EN" "http://www.w3.org/Graphics/SVG/1.1/DTD/svg11.dtd">
<svg version="1.1" id="PheNode" xmlns="http://www.w3.org/2000/svg" xmlns:xlink="http://www.w3.org/1999/xlink" x="0px" y="0px"
	 width="36.875px" height="36.891px" viewBox="116.089 33.801 36.875 36.891" enable-background="new 116.089 33.801 36.875 36.891"
	 xml:space="preserve">
<g id="Settings">
	<circle fill="#1A75E0" cx="134.496" cy="52.239" r="6.125"/>
	<path fill="#1A75E0" d="M134.496,42.614c5.308,0,9.625,4.318,9.625,9.625s-4.317,9.625-9.625,9.625s-9.625-4.318-9.625-9.625
		S129.188,42.614,134.496,42.614 M134.496,37.614L134.496,37.614 M152.964,55.833v-7.188h-4.289
		c-0.348-1.376-0.891-2.676-1.598-3.866l3.028-3.057l-5.11-5.062l-2.998,3.021c-1.193-0.714-2.497-1.263-3.879-1.615v-4.266h-7.186
		v4.249c-1.391,0.348-2.702,0.895-3.903,1.608l-3.019-2.999l-5.062,5.094l2.992,2.979c-0.721,1.203-1.272,2.517-1.625,3.911h-4.227
		v7.188l4.226-0.005c0.352,1.395,0.904,2.711,1.625,3.914l-2.991,2.997l5.094,5.079l2.994-2.997
		c1.198,0.712,2.508,1.258,3.896,1.605v4.25l7.188,0.016v-4.281c1.383-0.353,2.687-0.902,3.88-1.617l3.026,3.022l5.078-5.078
		l-3.031-3.035c0.709-1.191,1.254-2.493,1.603-3.871H152.964z"/>
</g>
</svg>
