<?xml version="1.0" encoding="utf-8"?>
<!-- Generator: Adobe Illustrator 16.0.4, SVG Export Plug-In . SVG Version: 6.00 Build 0)  -->
<!DOCTYPE svg PUBLIC "-//W3C//DTD SVG 1.1//EN" "http://www.w3.org/Graphics/SVG/1.1/DTD/svg11.dtd">
<svg version="1.1" id="PheNode" xmlns="http://www.w3.org/2000/svg" xmlns:xlink="http://www.w3.org/1999/xlink" x="0px" y="0px"
	 width="26.663px" height="37.962px" viewBox="43.232 80.895 26.663 37.962" enable-background="new 43.232 80.895 26.663 37.962"
	 xml:space="preserve">
<g id="Wireless_Sensors">
	<g id="RSS">
		<g id="Layer_8_1_">
		</g>
		<g id="Layer_7_1_">
			<path fill="#1A75E0" d="M65.283,91.137l-2.37,2.37c-1.721-1.659-3.973-2.572-6.359-2.574c-2.389-0.003-4.637,0.902-6.349,2.552
				l-2.362-2.361C52.684,86.412,60.436,86.418,65.283,91.137L65.283,91.137z"/>
		</g>
		<g id="Layer_6">
			<path fill="#1A75E0" d="M69.895,86.525L67.53,88.89c-6.091-5.96-15.86-5.972-21.937-0.026l-2.361-2.361
				C50.613,79.252,62.501,79.262,69.895,86.525L69.895,86.525z"/>
		</g>
		<g>
			<path fill="#1A75E0" d="M56.565,118.857c-0.361,0-0.695-0.195-0.872-0.511l-7.944-14.152c-0.174-0.31-0.17-0.688,0.009-0.995
				c0.179-0.306,0.508-0.495,0.863-0.495h15.884c0.355,0,0.684,0.188,0.863,0.495c0.18,0.307,0.183,0.685,0.009,0.995l-7.94,14.152
				C57.26,118.662,56.927,118.857,56.565,118.857z"/>
		</g>
	</g>
	<g id="Layer_11">
		<path fill="#1A75E0" d="M60.992,96.01l-4.435,4.479l-4.394-4.457c0,0,1.309-1.963,4.394-1.963S60.992,96.01,60.992,96.01z"/>
	</g>
</g>
</svg>
