<?xml version="1.0" encoding="UTF-8"?>
<svg id="Layer_2" data-name="Layer 2" xmlns="http://www.w3.org/2000/svg" viewBox="0 0 400.18 308.31">
  <defs>
    <style>
      .cls-1 {
        fill: #48f7f5;
      }
    </style>
  </defs>
  <g id="Layer_2-2" data-name="Layer 2">
    <g id="WS">
      <polygon class="cls-1" points="89.55 205.12 89.55 192.56 76.92 192.56 76.92 237.82 323.26 237.82 323.26 192.56 310.51 192.56 310.51 205.12 89.55 205.12"/>
      <polygon class="cls-1" points="89.55 275.6 89.55 263.04 76.92 263.04 76.92 308.31 323.26 308.31 323.26 263.04 310.51 263.04 310.51 275.6 89.55 275.6"/>
      <path class="cls-1" d="M400.18,77.8V17.96c0-9.92-8.04-17.96-17.96-17.96H17.96C8.04,0,0,8.04,0,17.96v59.85h155.45c3-21.97,21.84-38.9,44.64-38.9s41.64,16.93,44.64,38.9h155.45Z"/>
      <path class="cls-1" d="M400.18,96.28v59.85c0,9.92-8.04,17.96-17.96,17.96H17.96c-9.92,0-17.96-8.04-17.96-17.96v-59.85h155.45c3,21.97,21.84,38.9,44.64,38.9s41.64-16.93,44.64-38.9c0,0,155.45,0,155.45,0Z"/>
    </g>
  </g>
</svg>