<?xml version="1.0" encoding="UTF-8"?>
<svg id="Layer_2" data-name="Layer 2" xmlns="http://www.w3.org/2000/svg" viewBox="0 0 125.13 137.08">
  <defs>
    <style>
      .cls-1 {
        fill: #48f7f5;
      }

      .cls-2 {
        fill: #1a75e0;
      }
    </style>
  </defs>
  <g id="Rain">
    <path class="cls-2" d="M23.14,72.21c-12.76,0-23.14-10.38-23.14-23.14s10.38-23.14,23.14-23.14c.73,0,1.47.04,2.22.11C25.76,11.62,37.62,0,52.15,0c10.15,0,19.23,5.6,23.81,14.47,2.7-1.16,5.62-1.77,8.58-1.77,11.94,0,21.65,9.71,21.65,21.65v.59c3.03.08,7.8.78,11.86,3.95,4.06,3.17,6.44,7.99,7.07,14.32l.02.17v.17c-.48,18.49-17.88,18.67-18.17,18.67H23.14ZM23.14,31.22c-9.84,0-17.85,8.01-17.85,17.85s8.01,17.85,17.85,17.85h83.84c1.28,0,12.44-.42,12.87-13.35-.5-4.74-2.19-8.27-5.01-10.49-4.58-3.61-13.91-3.21-13.91-3.21v-5.52c0-9.02-7.35-16.36-16.37-16.36-2.95,0-5.85.79-8.37,2.3l-1.48.88-1.29.83-1.26-3.16c-3.28-8.23-11.13-13.55-20-13.55-11.87,0-21.52,9.65-21.52,21.52,0,.59.02,1.17.07,1.76l.03.38s0,0,0,0l.51,3.82-3.77-1.02c-1.4-.34-2.94-.53-4.34-.53Z"/>
    <polygon class="cls-2" points="36 96.7 32.7 96.7 36.59 78.37 39.9 78.37 36 96.7"/>
    <polygon class="cls-2" points="41.85 115.79 38.55 115.79 46.5 78.37 49.81 78.37 41.85 115.79"/>
    <polygon class="cls-2" points="57.12 90.57 53.82 90.57 56.41 78.37 59.72 78.37 57.12 90.57"/>
    <polygon class="cls-2" points="75.6 99.98 72.3 99.98 76.89 78.37 80.2 78.37 75.6 99.98"/>
    <polygon class="cls-2" points="88.62 85.35 85.32 85.35 86.8 78.37 90.11 78.37 88.62 85.35"/>
    <polygon class="cls-1" points="83.37 110.07 80.07 110.07 84.21 90.57 87.52 90.57 83.37 110.07"/>
    <polygon class="cls-1" points="70.6 123.54 67.29 123.54 71.19 105.21 74.49 105.21 70.6 123.54"/>
    <polygon class="cls-1" points="52.54 112.12 49.24 112.12 52.8 95.38 56.1 95.38 52.54 112.12"/>
    <polygon class="cls-1" points="37.33 137.08 34.02 137.08 37.64 120.08 40.94 120.08 37.33 137.08"/>
    <polygon class="cls-1" points="31.17 119.41 27.87 119.41 31.77 101.08 35.07 101.08 31.17 119.41"/>
  </g>
</svg>