<?xml version="1.0" encoding="UTF-8"?>
<svg id="Layer_2" data-name="Layer 2" xmlns="http://www.w3.org/2000/svg" viewBox="0 0 44.91 100.89">
  <defs>
    <style>
      .cls-1 {
        fill: #48f7f5;
      }

      .cls-2 {
        fill: #1a75e0;
      }
    </style>
  </defs>
  <g id="Temp">
    <path class="cls-1" d="M20.04,68.09v-32.63h4.97v32.63h0c4.63,1.12,8.06,5.28,8.06,10.25,0,5.83-4.72,10.55-10.55,10.55s-10.55-4.72-10.55-10.55c0-4.97,3.44-9.14,8.06-10.25h0Z"/>
    <path class="cls-2" d="M22.46,100.89c-12.38,0-22.46-10.07-22.46-22.46,0-7.02,3.23-13.53,8.72-17.77V13.72c0-7.57,6.16-13.72,13.72-13.72s13.75,6.16,13.75,13.72v46.94c5.49,4.24,8.71,10.75,8.71,17.76,0,12.38-10.07,22.46-22.46,22.46ZM22.44,6.84c-3.8,0-6.88,3.09-6.88,6.88v50.57s-1.57,1.01-1.57,1.01c-4.48,2.89-7.15,7.8-7.15,13.13,0,8.61,7.01,15.62,15.62,15.62s15.62-7.01,15.62-15.62c0-5.32-2.67-10.23-7.15-13.13l-1.56-1.01V13.72c0-3.79-3.1-6.88-6.91-6.88Z"/>
  </g>
</svg>