<?xml version="1.0" encoding="UTF-8"?>
<svg id="Layer_2" data-name="Layer 2" xmlns="http://www.w3.org/2000/svg" viewBox="0 0 159.73 94.79">
  <defs>
    <style>
      .cls-1 {
        fill: #48f7f5;
      }

      .cls-2 {
        fill: #fff;
      }

      .cls-3 {
        fill: #1a75e0;
      }
    </style>
  </defs>
  <g id="Wind">
    <g id="_23tay7.tif" data-name="23tay7.tif">
      <g>
        <path class="cls-1" d="M109.81,51.97c13.58.03,28.94,1.25,40.13-7.47,3.47-2.71,6.43-5.98,8.06-10.15,4.67-12-.39-25.39-11.59-31.61-6.3-3.5-13.3-3.54-19.85-.75-7.55,3.21-12.23,10.35-11.69,18.58.31,4.62,2.83,8.59,6.21,10.8,3.98,2.6,8.8,3.34,12.95,1.26-6.25-.32-11.68-3.41-12.97-9.48-1.49-6.98,2.99-14.27,10.04-15.93s14.14,1.89,17.49,8.2c5.07,9.57,1.91,21.5-7.33,27.34-5.53,3.49-11.74,5.97-18.9,5.97M83.28,42.28c2.23,0,4.27-.37,6.43-.73,6.25-1.04,12.33-4.01,15.49-9.75,5.02-9.1.45-20.57-9.09-24.29-3.82-1.49-7.54-1.22-11.25.24-4.81,1.9-8.13,6.07-8.41,11.3-.19,3.53,1.11,6.8,3.79,8.69s6.05,2.89,8.99,1.22c-5.58-.33-9.55-4.45-8.68-9.7.71-4.29,4.11-7.76,8.53-8.04,5.78-.37,10.45,3.56,11.76,9.09,1.66,7.04-1.94,14.12-8.72,17.07-3.2,1.39-6.8,2.15-10.51,2.12M97.39,60.06c4.45-.01,8.4.28,12.36,1.63,7.85,2.67,12.48,10.45,10.67,18.43-1.07,4.71-4.31,8.31-8.95,9.45-4.98,1.22-9.7-1.2-11.64-5.86-1.23-2.96-1.08-5.99.79-8.73,1.45-2.12,4.12-3.15,7.29-4.06-5-1.76-10.77,1.02-12.43,6.15-2.22,6.88,1.56,13.8,8.1,16.4,4.78,1.9,9.6,1.81,14.13-.8,8.19-4.72,11.75-15.01,7.65-23.7-4.14-8.78-14.9-11.82-24.23-11.8"/>
        <path class="cls-1" d="M122.36,48.74c7.16,0,13.37-2.48,18.9-5.97,9.25-5.84,12.41-17.78,7.33-27.34-3.35-6.31-10.45-9.85-17.49-8.2s-11.53,8.95-10.04,15.93c1.29,6.07,6.73,9.16,12.97,9.48-4.15,2.08-8.97,1.34-12.95-1.26-3.38-2.2-5.9-6.17-6.21-10.8-.55-8.23,4.13-15.37,11.69-18.58,6.55-2.79,13.55-2.75,19.85.75,11.2,6.22,16.26,19.61,11.59,31.61-1.62,4.17-4.58,7.45-8.06,10.15-11.19,8.72-26.55,7.5-40.13,7.47"/>
        <path class="cls-1" d="M101.14,57.18c9.33-.02,20.09,3.03,24.23,11.8,4.1,8.69.55,18.98-7.65,23.7-4.53,2.61-9.35,2.7-14.13.8-6.54-2.61-10.32-9.53-8.1-16.4,1.66-5.13,7.42-7.92,12.43-6.15-3.17.9-5.84,1.93-7.29,4.06-1.87,2.74-2.02,5.77-.79,8.73,1.94,4.67,6.65,7.09,11.64,5.86,4.64-1.14,7.88-4.74,8.95-9.45,1.81-7.98-2.82-15.76-10.67-18.43-3.96-1.35-7.91-1.64-12.36-1.63"/>
        <path class="cls-1" d="M81.61,39.5c3.71.03,7.31-.73,10.51-2.12,6.78-2.95,10.38-10.02,8.72-17.07-1.3-5.53-5.97-9.46-11.76-9.09-4.43.29-7.82,3.75-8.53,8.04-.87,5.25,3.1,9.37,8.68,9.7-2.94,1.68-6.4.61-8.99-1.22s-3.98-5.16-3.79-8.69c.28-5.23,3.6-9.4,8.41-11.3,3.7-1.46,7.43-1.73,11.25-.24,9.54,3.71,14.11,15.18,9.09,24.29-3.16,5.74-9.24,8.71-15.49,9.75-2.17.36-4.2.74-6.43.73"/>
      </g>
    </g>
    <g id="_23tay7.tif-2" data-name="23tay7.tif">
      <g>
        <path class="cls-2" d="M106.24,51.97c13.58.03,28.94,1.25,40.13-7.47,3.47-2.71,6.43-5.98,8.06-10.15,4.67-12-.39-25.39-11.59-31.61-6.3-3.5-13.3-3.54-19.85-.75-7.55,3.21-12.23,10.35-11.69,18.58.31,4.62,2.83,8.59,6.21,10.8,3.98,2.6,8.8,3.34,12.95,1.26-6.25-.32-11.68-3.41-12.97-9.48-1.49-6.98,2.99-14.27,10.04-15.93s14.14,1.89,17.49,8.2c5.07,9.57,1.91,21.5-7.33,27.34-5.53,3.49-11.74,5.97-18.9,5.97M79.71,42.28c2.23,0,4.27-.37,6.43-.73,6.25-1.04,12.33-4.01,15.49-9.75,5.02-9.1.45-20.57-9.09-24.29-3.82-1.49-7.54-1.22-11.25.24-4.81,1.9-8.13,6.07-8.41,11.3-.19,3.53,1.11,6.8,3.79,8.69s6.05,2.89,8.99,1.22c-5.58-.33-9.55-4.45-8.68-9.7.71-4.29,4.11-7.76,8.53-8.04,5.78-.37,10.45,3.56,11.76,9.09,1.66,7.04-1.94,14.12-8.72,17.07-3.2,1.39-6.8,2.15-10.51,2.12M93.82,60.06c4.45-.01,8.4.28,12.36,1.63,7.85,2.67,12.48,10.45,10.67,18.43-1.07,4.71-4.31,8.31-8.95,9.45-4.98,1.22-9.7-1.2-11.64-5.86-1.23-2.96-1.08-5.99.79-8.73,1.45-2.12,4.12-3.15,7.29-4.06-5-1.76-10.77,1.02-12.43,6.15-2.22,6.88,1.56,13.8,8.1,16.4,4.78,1.9,9.6,1.81,14.13-.8,8.19-4.72,11.75-15.01,7.65-23.7s-14.9-11.82-24.23-11.8"/>
        <path class="cls-3" d="M20.89,51.68l85.34.29c13.58.03,28.94,1.25,40.13-7.47,3.47-2.71,6.43-5.98,8.06-10.15,4.67-12-.39-25.39-11.59-31.61-6.3-3.5-13.3-3.54-19.85-.75-7.55,3.21-12.23,10.35-11.69,18.58.31,4.62,2.83,8.59,6.21,10.8,3.98,2.6,8.8,3.34,12.95,1.26-6.25-.32-11.68-3.41-12.97-9.48-1.49-6.98,2.99-14.27,10.04-15.93s14.14,1.89,17.49,8.2c5.07,9.57,1.91,21.5-7.33,27.34-5.53,3.49-11.74,5.97-18.9,5.97l-91.04.1-6.86,2.84Z"/>
        <path class="cls-3" d="M0,60.41l93.82-.35c4.45-.01,8.4.28,12.36,1.63,7.85,2.67,12.48,10.45,10.67,18.43-1.07,4.71-4.31,8.31-8.95,9.45-4.98,1.22-9.7-1.2-11.64-5.86-1.23-2.96-1.08-5.99.79-8.73,1.45-2.12,4.12-3.15,7.29-4.06-5-1.76-10.77,1.02-12.43,6.15-2.22,6.88,1.56,13.8,8.1,16.4,4.78,1.9,9.6,1.81,14.13-.8,8.19-4.72,11.75-15.01,7.65-23.7s-14.9-11.82-24.23-11.8l-88.16.28-9.42,2.95Z"/>
        <path class="cls-3" d="M44.07,42.01l35.64.28c2.23,0,4.27-.37,6.43-.73,6.25-1.04,12.33-4.01,15.49-9.75,5.02-9.1.45-20.57-9.09-24.29-3.82-1.49-7.54-1.22-11.25.24-4.81,1.9-8.13,6.07-8.41,11.3-.19,3.53,1.11,6.8,3.79,8.69s6.05,2.89,8.99,1.22c-5.58-.33-9.55-4.45-8.68-9.7.71-4.29,4.11-7.76,8.53-8.04,5.78-.37,10.45,3.56,11.76,9.09,1.66,7.04-1.94,14.12-8.72,17.07-3.2,1.39-6.8,2.15-10.51,2.12l-26.66-.42-7.31,2.93Z"/>
      </g>
    </g>
  </g>
</svg>