<?xml version="1.0" encoding="UTF-8"?>
<svg xmlns="http://www.w3.org/2000/svg" version="1.1" viewBox="0 0 552.2 275.4">
  <defs>
    <style>
      .cls-1 {
        display: none;
      }

      .cls-2 {
        fill: #1258aa;
      }
    </style>
  </defs>
  <!-- Generator: Adobe Illustrator 28.6.0, SVG Export Plug-In . SVG Version: 1.2.0 Build 709)  -->
  <g>
    <g id="Layer_1">
      <path class="cls-2" d="M6.5,148.9h366.4c1.6,9.7,6.2,19.1,13.7,26.6,19.1,19.1,49.6,19.1,68.8,0,19.1-18.9,19.2-49.8.4-68.9-18.9-19.1-50.4-19.2-69.3,0-7.5,7.6-12,17-13.6,26.8H6.4s0,0,0,0c3.5-17.8,19.2-31.2,38-31.2,0,0,166.9,0,250.1.2,4.4,0,6.2-1.4,7.7-5.5,29.1-79.9,129.1-108.7,196.1-56.5,55.5,43.2,66,121.2,23.9,177.3-47.7,63.5-143.1,67.3-195.7,7.8-10.9-12.3-19.3-26.1-24.8-41.6-.9-2.6-1.8-4.3-5.3-4.3h-112.9s-1.6,0-1.6,0c4.2,0,7.6,3.4,7.6,7.6v44.3c0,4.2-3.4,7.6-7.6,7.6H61.4c-4.2,0-7.6-3.4-7.6-7.6v-44.3c0-4.2,3.4-7.6,7.6-7.6h-17c-18.7,0-34.2-13.2-37.9-30.8h0Z"/>
    </g>
    <g id="Layer_3" class="cls-1">
      <path class="cls-2" d="M336.5,183.8l16.2,27.9c-20.1,21.2-48.6,34.4-80.1,34.4-61,0-110.4-49.4-110.4-110.4s49.4-110.4,110.4-110.4h0c58.5,0,106.4,45.6,110.2,103.2h21.9s-37.6,65-37.6,65l-37.6-65h22.8c-3.7-40.7-38-72.8-79.7-72.8s-80.1,35.9-80.1,80.1,35.9,80.1,80.1,80.1,49.4-12.6,64-32"/>
      <path class="cls-2" d="M492.9,219.3"/>
      <path class="cls-2" d="M348.3,196.6"/>
    </g>
    <metadata>
      <sfw xmlns="http://ns.adobe.com/SaveForWeb/1.0/">
        <slices/>
        <sliceSourceBounds x="-7231" y="-8732" width="16383" height="16383" bottomLeftOrigin="true"/>
      </sfw>
    </metadata>
  </g>
</svg>