<?xml version="1.0" encoding="UTF-8"?>
<svg xmlns="http://www.w3.org/2000/svg" version="1.1" viewBox="0 0 57.5 39.9">
  <defs>
    <style>
      .cls-1 {
        fill: #1258aa;
      }
    </style>
  </defs>
  <!-- Generator: Adobe Illustrator 28.6.0, SVG Export Plug-In . SVG Version: 1.2.0 Build 709)  -->
  <g>
    <g id="PheNode">
      <g id="Users">
        <circle class="cls-1" cx="28.7" cy="8.5" r="8.5"/>
        <path class="cls-1" d="M28.7,39.9h6.6c1.1-1.6,7-17.2,5.4-18.6-1.6-1.5-12-1.9-12-1.9,0,0-10.5.4-12,1.9s4.3,17.1,5.4,18.6h6.6Z"/>
        <circle class="cls-1" cx="48.8" cy="17.6" r="6.1"/>
        <path class="cls-1" d="M42.9,25.8c2.5-.4,5.8-.5,5.8-.5,0,0,7.5.3,8.6,1.3,1.1,1-3,12.1-3.8,13.3h-9.5c-.5-.7-2-4.2-3-7.6l1.9-6.4Z"/>
        <circle class="cls-1" cx="8.8" cy="17.6" r="6.1"/>
        <path class="cls-1" d="M14.6,25.8c-2.5-.4-5.8-.5-5.8-.5,0,0-7.5.3-8.6,1.3s3,12.1,3.8,13.3h9.5c.5-.7,2-4.2,3-7.6l-1.9-6.4Z"/>
      </g>
    </g>
    <metadata>
      <sfw xmlns="http://ns.adobe.com/SaveForWeb/1.0/">
        <slices/>
        <sliceSourceBounds x="0" y="0" width="57.52" height="39.92" bottomLeftOrigin="true"/>
      </sfw>
    </metadata>
  </g>
</svg>