<?xml version="1.0" encoding="utf-8"?>
<!-- Generator: Adobe Illustrator 16.0.4, SVG Export Plug-In . SVG Version: 6.00 Build 0)  -->
<!DOCTYPE svg PUBLIC "-//W3C//DTD SVG 1.1//EN" "http://www.w3.org/Graphics/SVG/1.1/DTD/svg11.dtd">
<svg version="1.1" id="PheNode" xmlns="http://www.w3.org/2000/svg" xmlns:xlink="http://www.w3.org/1999/xlink" x="0px" y="0px"
	 width="51.139px" height="38.018px" viewBox="0 0 51.139 38.018" enable-background="new 0 0 51.139 38.018" xml:space="preserve">
<g id="Data_Preferences">
	<g id="Buttons">
		<path fill="#48F7F5" d="M28.623,28.292c-2.999,1.097-6.479,0.71-9.226-1.335c-2.759-2.056-4.125-5.296-3.919-8.498l-5.896-1.376
			c-0.701,5.474,1.492,11.155,6.23,14.687c4.732,3.524,10.79,4.002,15.828,1.777L28.623,28.292z M31.097,11.251
			c2.729,2.032,4.097,5.227,3.925,8.394l5.902,1.385c0.664-5.442-1.531-11.081-6.244-14.591l0,0c-4.724-3.518-10.769-4-15.801-1.788
			l3.019,5.255C24.891,8.819,28.357,9.21,31.097,11.251"/>
	</g>
	<g id="Layer_7">
		<polyline fill="#48F7F5" points="11.681,10.129 9.301,13.395 21.666,16.165 21.666,16.165 15.24,5.245 12.861,8.511 		"/>
		<polyline fill="#48F7F5" points="12.073,10.414 0,1.616 1.178,0 13.251,8.796 		"/>
		<polyline fill="#48F7F5" points="37.935,29.257 35.556,32.524 29.129,21.604 29.129,21.603 41.494,24.374 39.115,27.64 		"/>
		<polyline fill="#48F7F5" points="37.887,29.222 49.96,38.018 51.139,36.401 39.066,27.605 		"/>
	</g>
</g>
</svg>
