<?xml version="1.0" encoding="utf-8"?>
<!-- Generator: Adobe Illustrator 16.0.4, SVG Export Plug-In . SVG Version: 6.00 Build 0)  -->
<!DOCTYPE svg PUBLIC "-//W3C//DTD SVG 1.1//EN" "http://www.w3.org/Graphics/SVG/1.1/DTD/svg11.dtd">
<svg version="1.1" id="PheNode" xmlns="http://www.w3.org/2000/svg" xmlns:xlink="http://www.w3.org/1999/xlink" x="0px" y="0px"
	 width="51.139px" height="38.018px" viewBox="23.38 33.37 51.139 38.018" enable-background="new 23.38 33.37 51.139 38.018"
	 xml:space="preserve">
<g id="Data_Preferences">
	<g id="Buttons">
		<path fill="#1A75E0" d="M52.003,61.662c-2.999,1.097-6.478,0.71-9.225-1.335c-2.759-2.055-4.125-5.296-3.919-8.498l-5.896-1.376
			c-0.701,5.474,1.492,11.156,6.231,14.687c4.732,3.524,10.79,4.002,15.828,1.777L52.003,61.662z M54.477,44.621
			c2.729,2.033,4.096,5.227,3.925,8.394l5.902,1.385c0.664-5.443-1.531-11.081-6.244-14.591l0,0c-4.724-3.518-10.769-4-15.801-1.788
			l3.019,5.255C48.271,42.189,51.737,42.58,54.477,44.621"/>
	</g>
	<g id="Layer_7">
		<polyline fill="#1A75E0" points="35.061,43.499 32.681,46.765 45.046,49.535 45.046,49.535 38.62,38.615 36.24,41.881 		"/>
		<polyline fill="#1A75E0" points="35.453,43.784 23.38,34.987 24.558,33.37 36.631,42.166 		"/>
		<polyline fill="#1A75E0" points="61.315,62.627 58.936,65.894 52.509,54.974 52.509,54.973 64.874,57.744 62.494,61.01 		"/>
		<polyline fill="#1A75E0" points="61.267,62.592 73.34,71.388 74.519,69.771 62.446,60.975 		"/>
	</g>
</g>
</svg>
