<?xml version="1.0" encoding="utf-8"?>
<!-- Generator: Adobe Illustrator 27.1.1, SVG Export Plug-In . SVG Version: 6.00 Build 0)  -->
<svg version="1.1" id="PheNode" xmlns="http://www.w3.org/2000/svg" xmlns:xlink="http://www.w3.org/1999/xlink" x="0px" y="0px"
	 viewBox="62.197 180.405 58.361 49.221" enable-background="new 62.197 180.405 58.361 49.221" xml:space="preserve">
<g id="Home__x2F__Fleet">
	<path fill="#48F7F5" d="M95.282,192.588c2.318,1.814,14.915,11.589,14.915,11.589s1.915,1.401,1.915,4.352l0,17.17
		c0,0-0.504,3.37-4.737,3.37c-4.233,0-9.473,0-9.473,0l0-13c0,0-0.101-2.721-3.225-2.721c-3.124,0-3.133,0-6.257,0
		c-3.124,0-3.225,2.721-3.225,2.721v13c0,0-5.24,0-9.473,0s-4.737-3.37-4.737-3.37v-17.17c0-2.952,1.915-4.352,1.915-4.352
		s12.597-9.775,14.915-11.589c2.318-1.814,3.729-1.814,3.729-1.814S92.964,190.774,95.282,192.588z"/>
	<path fill="#48F7F5" d="M103.827,190.13l-11.356-8.549c-0.545-0.412-1.296-0.412-1.844-0.007L63.316,201.83
		c-0.684,0.507-0.827,1.473-0.32,2.156c0.303,0.408,0.768,0.623,1.239,0.623c0.319,0,0.64-0.099,0.917-0.303l26.386-19.57
		l25.988,19.563c0.683,0.513,1.648,0.374,2.158-0.304c0.512-0.68,0.376-1.647-0.304-2.158l-7.268-5.471l-0.015-8.641
		c0,0-0.076-0.794-1.701-0.794c-1.625,0-3.244,0-4.869,0s-1.701,0.794-1.701,0.794L103.827,190.13L103.827,190.13z"/>
</g>
</svg>
