<?xml version="1.0" encoding="utf-8"?>
<!-- Generator: Adobe Illustrator 16.0.4, SVG Export Plug-In . SVG Version: 6.00 Build 0)  -->
<!DOCTYPE svg PUBLIC "-//W3C//DTD SVG 1.1//EN" "http://www.w3.org/Graphics/SVG/1.1/DTD/svg11.dtd">
<svg version="1.1" id="PheNode" xmlns="http://www.w3.org/2000/svg" xmlns:xlink="http://www.w3.org/1999/xlink" x="0px" y="0px"
	 width="47.989px" height="35.49px" viewBox="110.714 105.083 47.989 35.49" enable-background="new 110.714 105.083 47.989 35.49"
	 xml:space="preserve">
<g id="Imaging">
	<circle fill="#1A75E0" cx="134.574" cy="124.489" r="8.224"/>
	<path fill="#1A75E0" d="M134.536,105.083h6.25l5.094,4.188h2.594v-2h3.875v1.844c0,0,0.25,0,2.938,0
		c2.938,0,3.031,2.375,3.031,2.375v4.042l-17.468-0.042c-1.768-1.361-3.95-2.166-6.313-2.166h-0.04
		c-2.363,0-4.546,0.804-6.313,2.166l-17.468,0.042v-4.042c0,0,0.094-2.375,3.031-2.375c2.688,0,2.938,0,2.938,0v-1.844h3.875v2
		h2.594l5.094-4.188h6.25H134.536z"/>
	<path fill="#1A75E0" d="M158.704,117.072c0,0,0,21.417,0,22.458s-1.5,1.042-1.5,1.042s-43.666,0-45.041,0s-1.448-1.042-1.448-1.042
		v-22.46h15.744c-1.801,1.949-2.9,4.555-2.9,7.418c0,6.041,4.896,10.938,10.938,10.938s10.938-4.897,10.938-10.938
		c0-2.861-1.098-5.466-2.896-7.415L158.704,117.072z M152.058,119.676c-0.812,0-1.469,0.658-1.469,1.469s0.657,1.469,1.469,1.469
		s1.469-0.658,1.469-1.469S152.87,119.676,152.058,119.676z"/>
</g>
</svg>
