<?xml version="1.0" encoding="UTF-8"?>
<svg id="Layer_2" data-name="Layer 2" xmlns="http://www.w3.org/2000/svg" viewBox="0 0 166.83 223.71">
  <defs>
    <style>
      .cls-1 {
        fill: #48f7f5;
      }
    </style>
  </defs>
  <g id="Map_Active" data-name="Map Active">
    <path class="cls-1" d="M83.32,0c46.12,0,83.51,37.39,83.51,83.51,0,11.37-2.32,22.7-6.83,33.14-5.52,12.76-13.81,24.07-22.37,34.93-8.95,11.35-17.66,22.77-26.27,34.39-9.08,12.26-18.86,25.48-27.94,37.74h0c-9.08-12.26-18.86-25.48-27.94-37.74-8.61-11.62-17.32-23.03-26.27-34.39-8.56-10.86-16.85-22.17-22.37-34.93C2.32,106.21,0,94.88,0,83.51,0,37.39,37.39,0,83.51,0h-.19ZM83.42,51.4c-17.75,0-32.14,14.39-32.14,32.14s14.39,32.14,32.14,32.14,32.14-14.39,32.14-32.14-14.39-32.14-32.14-32.14Z"/>
  </g>
</svg>