<?xml version="1.0" encoding="UTF-8"?>
<svg id="Layer_2" data-name="Layer 2" xmlns="http://www.w3.org/2000/svg" viewBox="0 0 831.34 467.57">
  <defs>
    <style>
      .cls-1 {
        fill: #1a75e0;
      }
    </style>
  </defs>
  <g id="PheNode">
    <path class="cls-1" d="M233.74,417.57v19.78s-.57,25.71,15.46,30.22h-113.2c-23.58,0-44.31-15.04-52.82-38.31L3.86,212.13c-7.06-19.33-4.33-40.82,7.32-57.48,10.77-15.4,27.35-24.23,45.49-24.23h192.53c-17.12,5.17-15.46,30.79-15.46,30.79v19.14l-144.47.07s-45.08-3.59-29.29,39.64l70.17,192.04c1.18,3.22,3.58,5.47,5.85,5.47h97.73"/>
    <path class="cls-1" d="M597.6,417.57v19.78s.57,25.71-15.46,30.22h113.2c23.58,0,44.31-15.04,52.82-38.31l79.33-217.13c7.06-19.33,4.33-40.82-7.32-57.48-10.77-15.4-27.35-24.23-45.49-24.23h-192.53c17.12,5.17,15.46,30.79,15.46,30.79v19.14s144.47.07,144.47.07c0,0,45.08-3.59,29.29,39.64l-70.17,192.04c-1.18,3.22-3.58,5.47-5.85,5.47h-97.73"/>
    <rect class="cls-1" x="265.39" y="131" width="301.28" height="336.58" rx="30.22" ry="30.22"/>
    <rect class="cls-1" x="195.32" y="0" width="22.57" height="106.76" rx="10.63" ry="10.63"/>
    <rect class="cls-1" x="154.32" y="0" width="22.57" height="106.76" rx="10.63" ry="10.63"/>
    <rect class="cls-1" x="113.32" y="0" width="22.57" height="106.76" rx="10.63" ry="10.63"/>
    <path class="cls-1" d="M442.95,83.76c0-23.2,14.22-37.42,31.77-37.42h60.18c17.55,0,31.77,14.22,31.77,37.42h-123.72Z"/>
    <path class="cls-1" d="M442.95,161.21c0-40.23,14.22-54.45,31.77-54.45h60.18c17.55,0,31.77,14.22,31.77,54.45h-123.72Z"/>
  </g>
</svg>