<?xml version="1.0" encoding="UTF-8"?>
<svg id="Layer_2" data-name="Layer 2" xmlns="http://www.w3.org/2000/svg" viewBox="0 0 187.38 180.43">
  <defs>
    <style>
      .cls-1 {
        fill: #002b70;
      }

      .cls-2, .cls-3 {
        fill: #0d56ff;
      }

      .cls-3 {
        stroke: #002b70;
        stroke-miterlimit: 10;
      }

      .cls-4 {
        fill: #002766;
      }
    </style>
  </defs>
  <g id="Soil_Probe" data-name="Soil Probe">
    <path class="cls-4" d="M.28,180.43h18.09s-.55,0-.55,0c20.5,0,27.71-18.84,27.71-19.12,0,0,2.72-7.91,2.66-7.94,0,0-2.88.3-5.15-1.76l-2.77,8.03s-5.54,15.24-22.44,15.24H0"/>
    <g id="Soil_Probe-2" data-name="Soil Probe">
      <path class="cls-1" d="M50.81,152.49c2.22-3.05,3.09-5.66,3.09-5.66l-11.36-3.6v.28s-.83,5.82-.83,5.82c0,0,2.63,4.56,9.11,3.16Z"/>
      <path class="cls-3" d="M72.68,153l-33.25-10.53s-6.65-3.32-3.88-11.36S72.4,6.71,72.4,6.71c0,0,1.11-8.03,11.91-5.82,11.08,2.49,19.67,4.16,19.67,4.16l12.9,7.53s2.64,1.62,1.42,6.15c-1.94,6.65-40.1,131.42-40.1,131.42,0,0-.88,4.19-5.53,2.86h0Z"/>
      <path class="cls-1" d="M104.26,8.92l10.53,6.1s2.07,1.11,1.11,3.88l-38.79,127.45s-.55,4.16-3.05,3.05c-3.32-1.11-11.36-3.6-11.36-3.6,0,0-2.22-.55-.83-4.71S100.94,9.48,100.94,9.48c0,0,.5-2.17,3.32-.55Z"/>
    </g>
    <g id="Soil_Lights" data-name="Soil Lights">
      <path class="cls-2" d="M168.82,63.23l-63.17-19.39c-1.11,1.94-1.94,2.49-3.05,2.49s-.55,0-.83,0c0,0-.83-.55-1.11-1.11-.83-1.39-.83-3.88,0-6.1.83-2.77,2.49-5.26,4.43-5.54h.83c1.11.55,1.94,2.22,1.94,4.16l62.89,19.67,16.62,8.03-18.56-2.22Z"/>
      <path class="cls-2" d="M158.57,97.03l-63.45-19.39c-1.11,1.94-1.94,2.49-3.05,2.49s-.55,0-.83,0c0,0-.83-.55-1.11-1.11-.83-1.39-.83-3.88,0-6.1.83-2.77,2.49-5.26,4.43-5.54h.83c1.11.55,1.94,2.22,1.94,4.16l62.89,19.67,16.62,8.31-18.29-2.49Z"/>
      <path class="cls-2" d="M81.82,113.38c1.11.03,1.94-.55,3.05-2.49l63.17,19.39,18.56,2.22-16.62-8.03-62.89-19.67c0-1.94-.83-3.6-1.94-4.16h-.83c-1.94.28-3.6,2.77-4.43,5.54-.83,2.22-.83,4.71,0,6.1,0,0,.86,1.08,1.94,1.11Z"/>
    </g>
  </g>
</svg>